<?xml version="1.0" encoding="utf-8"?>
<!-- Generator: Adobe Illustrator 22.0.1, SVG Export Plug-In . SVG Version: 6.00 Build 0)  -->
<svg version="1.1" xmlns="http://www.w3.org/2000/svg" xmlns:xlink="http://www.w3.org/1999/xlink" x="0px" y="0px"
	 viewBox="0 0 64 64" style="enable-background:new 0 0 64 64;" xml:space="preserve">
<style type="text/css">
	.st0{fill:#FFFFFF;}
</style>
<g id="Layer_1_copy_3">
	<path d="M39-2.5H4.5v69h55V18L39-2.5z"/>
	<g id="XMLID_1_">
		<g>
			<polygon class="st0" points="53.5,19 38,19 38,3.5 			"/>
		</g>
		<g>
		</g>
	</g>
</g>
<g id="Layer_2_copy">
	<g>
		<g>
			<circle class="st0" cx="21" cy="9.2" r="4.7"/>
		</g>
		<path class="st0" d="M26.2,15.2c-0.8,1.6-3.3,2.6-5.2,2.6s-4.4-1.1-5.2-2.6C13.5,16.6,12,21.1,12,24h18
			C30,21.1,28.5,16.6,26.2,15.2z"/>
	</g>
	<g>
		<g>
			<path class="st0" d="M50.6,47H13.4c-0.8,0-1.4-0.7-1.4-1.5s0.6-1.5,1.4-1.5h37.2c0.8,0,1.4,0.7,1.4,1.5S51.4,47,50.6,47z"/>
		</g>
		<g>
			<path class="st0" d="M43.3,35H13.4c-0.8,0-1.4-0.7-1.4-1.5s0.6-1.5,1.4-1.5h29.9c0.8,0,1.4,0.7,1.4,1.5S44,35,43.3,35z"/>
		</g>
		<g>
			<path class="st0" d="M50.6,59H13.4c-0.8,0-1.4-0.7-1.4-1.5s0.6-1.5,1.4-1.5h37.2c0.8,0,1.4,0.7,1.4,1.5S51.4,59,50.6,59z"/>
		</g>
	</g>
</g>
</svg>
