<svg version="1.1" 
	xmlns="http://www.w3.org/2000/svg" 
	xmlns:xlink="http://www.w3.org/1999/xlink" x="0px" y="0px" width="200px" height="200px" viewBox="0 0 200 200" enable-background="new 0 0 200 200" xml:space="preserve">
	<g>
		<path d="M200,85.704c-10.87-10.887-21.735-21.774-32.746-32.809c-28.632,28.632-57.114,57.113-85.486,85.481
		c-6.763-6.746-13.418-13.39-20.175-20.135c28.394-28.393,56.879-56.873,85.501-85.498C136.064,21.737,125.176,10.869,114.287,0
		C142.821,0,171.355,0,200,0C200,28.569,200,57.137,200,85.704z"/>
		<path d="M99.912,28.569c0,4.828,0,9.412,0,14.29c-0.995,0-1.932,0-2.865,0c-22.545-0.003-45.086-0.012-67.629-0.003
		c-9.063,0.003-15.118,6.053-15.122,15.105c-0.006,37.571-0.006,75.143,0.01,112.712c0.003,8.944,6.047,15.015,14.969,15.018
		c37.421,0.016,74.845,0.016,112.269,0.003c9.823-0.003,15.597-5.832,15.604-15.737c0.012-22.395,0-44.781,0-67.175
		c0-0.817,0-1.63,0-2.621c4.715,0,9.351,0,14.294,0c0,0.754,0,1.541,0,2.328c-0.006,22.846,0.019,45.681-0.018,68.523
		c-0.025,16.385-12.602,28.952-29.008,28.964c-37.649,0.027-75.291,0.034-112.94,0.007C12.421,199.97,0.021,187.57,0.011,170.575
		c-0.015-37.646-0.015-75.289,0-112.933C0.018,41.113,12.576,28.587,29.14,28.575c22.765-0.015,45.531-0.003,68.298-0.003
		C98.178,28.569,98.917,28.569,99.912,28.569z"/>
	</g>
</svg>
